<?xml version="1.0" standalone="no"?>
<!DOCTYPE svg PUBLIC "-//W3C//DTD SVG 20010904//EN"
 "http://www.w3.org/TR/2001/REC-SVG-20010904/DTD/svg10.dtd">
<svg version="1.0" xmlns="http://www.w3.org/2000/svg"
 width="96.000000pt" height="96.000000pt" viewBox="0 0 96.000000 96.000000"
 preserveAspectRatio="xMidYMid meet">

<g transform="translate(0.000000,96.000000) scale(0.100000,-0.100000)"
fill="#000000" stroke="none">
<path d="M360 834 c-160 -25 -234 -57 -244 -106 -3 -17 -19 -46 -36 -64 -43
-50 -46 -72 -15 -161 25 -73 26 -83 17 -172 -12 -112 -3 -152 39 -182 75 -53
282 -25 467 66 160 78 200 107 227 169 13 28 37 64 54 80 39 37 55 84 42 119
-6 14 -30 46 -55 71 -24 25 -47 59 -51 76 -4 17 -24 49 -44 71 l-38 39 -169
-1 c-93 -1 -180 -3 -194 -5z m361 -45 c11 -5 34 -39 50 -73 17 -35 48 -80 70
-102 22 -22 39 -48 39 -60 0 -13 -17 -43 -39 -67 -21 -25 -48 -65 -60 -90 -25
-52 -56 -74 -202 -147 -193 -98 -434 -121 -463 -45 -3 9 -3 69 1 133 5 107 4
122 -16 166 -28 65 -27 92 9 133 17 19 33 48 37 64 7 37 53 66 135 84 77 17
410 20 439 4z"/>
<path d="M526 690 c-32 -10 -66 -38 -66 -55 0 -29 23 -34 72 -14 27 10 69 19
93 19 45 0 59 8 47 27 -18 29 -89 40 -146 23z m34 -29 c0 -10 -46 -31 -67 -31
-13 0 -13 2 -2 16 23 28 69 38 69 15z m90 9 c0 -5 -2 -10 -4 -10 -3 0 -8 5
-11 10 -3 6 -1 10 4 10 6 0 11 -4 11 -10z"/>
<path d="M221 664 c-30 -21 -13 -34 46 -34 88 0 99 -34 26 -80 -38 -24 -43
-30 -25 -31 32 -2 35 -3 64 -23 15 -10 32 -14 39 -10 7 4 0 12 -20 20 -36 15
-40 34 -11 52 11 7 20 22 20 33 0 12 8 28 18 35 14 11 14 13 2 14 -9 0 -33 9
-55 20 -48 24 -73 25 -104 4z"/>
<path d="M715 620 c-33 -22 -84 -26 -118 -9 -21 10 -21 9 2 -10 29 -26 64 -26
120 -1 24 11 49 20 56 20 21 0 45 -35 45 -65 0 -21 3 -26 11 -18 13 13 3 67
-15 82 -25 21 -70 21 -101 1z"/>
<path d="M135 590 c-4 -6 5 -10 20 -10 14 0 34 -6 45 -12 22 -14 50 -3 58 21
3 10 0 10 -17 2 -15 -8 -27 -9 -40 -1 -25 13 -58 13 -66 0z"/>
<path d="M722 560 c-6 -16 -33 -32 -93 -57 -115 -46 -185 -63 -263 -63 -89 0
-133 19 -144 62 -14 57 -35 41 -50 -39 -17 -86 -10 -132 24 -173 35 -40 89
-54 194 -46 104 7 172 26 231 66 48 31 139 140 139 165 0 8 6 12 14 9 24 -9
30 18 8 35 -11 9 -22 25 -24 35 -5 28 -27 31 -36 6z m-14 -87 c-4 -23 -48 -31
-48 -10 0 9 6 18 13 20 25 11 38 7 35 -10z m-84 -33 c-23 -24 -89 -40 -82 -20
4 12 89 50 97 43 3 -2 -4 -12 -15 -23z m-417 -32 c-3 -8 -6 -5 -6 6 -1 11 2
17 5 13 3 -3 4 -12 1 -19z m53 -4 c0 -8 -7 -14 -15 -14 -8 0 -15 9 -15 20 0
13 5 18 15 14 8 -4 15 -12 15 -20z m270 2 c0 -14 -29 -26 -67 -26 -13 0 -23 6
-23 14 0 8 10 17 23 19 46 9 67 7 67 -7z m-212 -2 c34 -10 26 -24 -13 -24 -33
0 -43 8 -28 23 8 8 12 8 41 1z m324 -37 c-6 -7 -24 -20 -40 -29 -29 -17 -29
-17 -41 8 -10 23 -9 26 32 43 36 16 43 16 50 4 5 -8 4 -19 -1 -26z m-222 23
c0 -5 -13 -10 -30 -10 -16 0 -30 5 -30 10 0 6 14 10 30 10 17 0 30 -4 30 -10z
m123 -47 c7 -36 -1 -43 -52 -50 -40 -6 -41 -5 -41 24 0 28 16 39 81 52 4 0 9
-11 12 -26z m-299 -42 c-6 -6 -24 19 -24 34 1 6 7 1 15 -9 8 -11 12 -22 9 -25z
m186 9 c0 -26 -3 -30 -29 -30 -22 0 -30 5 -33 24 -4 19 0 26 16 29 43 9 46 7
46 -23z m-140 1 c15 -30 -5 -35 -24 -6 -14 21 -14 25 -2 25 9 0 20 -9 26 -19z
m60 0 c14 -27 13 -31 -10 -31 -16 0 -40 26 -40 44 0 15 40 4 50 -13z"/>
<path d="M470 550 c0 -5 7 -10 15 -10 18 0 19 -12 3 -29 -11 -10 -9 -12 7 -9
24 4 33 37 13 49 -18 12 -38 11 -38 -1z"/>
<path d="M410 510 c0 -5 12 -10 26 -10 14 0 23 4 19 10 -3 6 -15 10 -26 10
-10 0 -19 -4 -19 -10z"/>
</g>
</svg>
